<?xml version="1.0" encoding="utf-8"?>
<!-- Generator: Adobe Illustrator 24.3.0, SVG Export Plug-In . SVG Version: 6.00 Build 0)  -->
<svg version="1.1" id="Ebene_1" xmlns="http://www.w3.org/2000/svg" xmlns:xlink="http://www.w3.org/1999/xlink" x="0px" y="0px"
	 viewBox="0 0 64 64" style="enable-background:new 0 0 64 64;" xml:space="preserve">
<g>
	<g>
		<path style="fill:#B4783F;" d="M45.4,22.2C45.4,22.2,45.4,22.2,45.4,22.2C45.4,22.2,45.4,22.2,45.4,22.2L45.4,22.2z"/>
	</g>
	<g>
		<path style="fill:#B4783F;" d="M62.4,6H42.2c-3.7,0-3.7,0-7.2,7.2l-1.1,2.3l-0.1,0.2H3.9c-2.2,0-3.9,1.8-3.9,4V52
			c0,2.2,1.7,4,3.9,4h56.2c2.2,0,3.9-1.8,3.9-4V7.5C64,6.7,63.3,6,62.4,6z M28.5,23.2c0-1,0.2-1.8,0.3-2.5c0.1-0.7,0.3-1.3,0.4-1.7
			c0.1-0.3,0.2-0.5,0.2-0.6c0,0,0,0,0,0c0,0,0,0,0,0c0,0,0,0,0,0c0.2,0.1,0.4,0.2,0.6,0.2c0.1,0,0.1,0.1,0.2,0.1
			c0.1,0.1,0.3,0.1,0.4,0.2c0.1,0,0.1,0.1,0.2,0.1c0.1,0.1,0.2,0.1,0.3,0.2c0.1,0,0.1,0.1,0.2,0.1c0.1,0.1,0.2,0.1,0.3,0.2
			c0.1,0,0.1,0.1,0.2,0.1c0.1,0.1,0.2,0.1,0.3,0.2c0.1,0.1,0.1,0.1,0.2,0.2c0.1,0.1,0.2,0.1,0.2,0.2c0.1,0.1,0.1,0.1,0.2,0.2
			c0.1,0.1,0.1,0.1,0.2,0.2c0.1,0.1,0.1,0.1,0.2,0.2c0.1,0.1,0.1,0.1,0.2,0.2c0.1,0.1,0.1,0.1,0.1,0.2c0.1,0.1,0.1,0.1,0.2,0.2
			c0,0.1,0.1,0.1,0.1,0.1c0,0,0.1,0.1,0.1,0.1c0,0,0.1,0.1,0.1,0.1c0,0,0.1,0.1,0.1,0.1c0,0,0.1,0.1,0.1,0.1c0,0.1,0.1,0.1,0.1,0.2
			c0,0,0.1,0.1,0.1,0.1c0,0,0,0,0.1,0.1c0,0,0,0.1,0.1,0.1c0,0,0,0,0,0c0,0,0,0,0,0c0,0,0,0,0,0c0,0,0,0,0,0
			c0.3-0.1,0.5-0.2,0.8-0.3c0.1,0,0.1,0,0.2-0.1c0.2-0.1,0.5-0.1,0.7-0.2c0,0,0.1,0,0.1,0c0.3-0.1,0.5-0.1,0.8-0.2
			c0.1,0,0.1,0,0.2,0c0.2,0,0.5-0.1,0.7-0.1c0.1,0,0.1,0,0.2,0c0.3,0,0.5,0,0.8,0c0.1,0,0.1,0,0.2,0c0.1,0,0.2,0,0.3,0
			c0.1,0,0.2,0,0.3,0c0,0,0.1,0,0.1,0c0.2,0,0.5,0,0.7,0c0.1,0,0.1,0,0.2,0c0.2,0,0.5,0,0.7,0.1c0,0,0,0,0,0c0.2,0,0.5,0.1,0.7,0.1
			c0,0,0.1,0,0.1,0c0.2,0,0.4,0.1,0.6,0.1c0,0,0.1,0,0.1,0c0.2,0,0.3,0.1,0.5,0.1c0,0,0,0,0.1,0c0.2,0,0.3,0.1,0.5,0.1
			c0,0,0.1,0,0.1,0c0.1,0,0.3,0.1,0.4,0.1c0.1,0,0.2,0,0.2,0.1c0,0,0.1,0,0.1,0c0.1,0,0.1,0,0.2,0c0,0,0,0,0,0c0,0,0.1,0,0.1,0
			c0-0.1,0.1-0.2,0.1-0.3c0-0.1,0.1-0.2,0.1-0.3c0.1-0.2,0.2-0.4,0.4-0.5c0.3-0.3,0.6-0.6,0.9-0.9c0.3-0.3,0.7-0.5,1-0.7
			c1.7-1,3.6-1.4,3.6-1.4c2.8,14.1-6.9,21.2-9.7,22.9c-0.5,0.3-0.8,0.4-0.8,0.4c-4.2-2.3-7.1-4.8-9-7.3c-1.3-1.8-2.2-3.5-2.8-5.1
			c-0.3-0.9-0.5-1.8-0.6-2.7c-0.1-0.9-0.2-1.7-0.2-2.4C28.5,23.6,28.5,23.4,28.5,23.2z M30.1,52.8c0,0.3-0.3,0.5-0.5,0.5h-4
			c-0.1,0-0.2,0-0.3-0.1l-5.7-4.6c0,0-0.1-0.1-0.1-0.1c0.1-0.1,0.3-0.2,0.4-0.3c0.9-0.5,1.9-0.8,3.2-1c0.2,0,0.4,0,0.7-0.1l2.6,2.5
			c1.3,0,2.4,0.3,3,1C30.2,51.5,30.1,52.7,30.1,52.8z M54,53.2H50c-0.7-0.3-1.3-0.6-2-0.9c-0.2-0.1-0.4-0.2-0.6-0.2
			c-0.5-0.2-0.9-0.4-1.4-0.6c-0.2-0.1-0.4-0.2-0.5-0.2c-0.6-0.3-1.2-0.5-1.8-0.7c0,0-0.1,0-0.1,0c-0.6-0.2-1.1-0.4-1.6-0.6
			c-0.2-0.1-0.3-0.1-0.5-0.2c-0.4-0.2-0.8-0.3-1.2-0.4c-0.2-0.1-0.3-0.1-0.5-0.2c-0.5-0.2-1-0.4-1.5-0.5c0,0-0.1,0-0.1,0
			c-0.5-0.1-0.9-0.3-1.3-0.4c-0.1,0-0.3-0.1-0.4-0.1c-0.4-0.1-0.7-0.2-1-0.3c-0.1,0-0.3-0.1-0.4-0.1c-0.5-0.1-0.9-0.2-1.3-0.3
			c-0.1,0-0.1,0-0.2,0c-0.4-0.1-0.7-0.2-1.1-0.3c-0.1,0-0.3-0.1-0.4-0.1c-0.3-0.1-0.6-0.1-0.9-0.2c-0.1,0-0.2,0-0.3-0.1
			c-0.4-0.1-0.8-0.1-1.1-0.2c-0.1,0-0.1,0-0.2,0c-0.3,0-0.6-0.1-0.9-0.1c-0.1,0-0.2,0-0.3,0c-0.3,0-0.5-0.1-0.7-0.1
			c-0.1,0-0.2,0-0.3,0c-0.3,0-0.6,0-0.9-0.1c0,0-0.1,0-0.1,0c-0.3,0-0.5,0-0.7,0c0,0-0.1,0-0.1,0c-0.1,0-0.1,0-0.1,0
			c-0.2,0-0.4,0-0.6,0c-0.1,0-0.1,0-0.2,0c-0.6,0-1.2,0.1-1.7,0.2c-0.2,0-0.3,0.1-0.5,0.1c-1.3,0.3-2.4,0.7-3.2,1.2l0,0
			c-0.2,0.1-0.3,0.2-0.4,0.3c-0.6,0.5-1.1,1-1.5,1.5c-1,1.4-1.1,2.9-1.2,3.6c0,0.1,0,0.2,0,0.2s0-0.1,0-0.2c0,0.2,0,0.4,0,0.4h-6
			c1.6-3.9,3.4-7,5.3-9.5C12,41.3,9.4,38,10.8,33.3c1.4-4.9,8.2-4.5,8.5-4.5c0.6,0,1,0.5,1,1.1c0,0.6-0.5,1-1.1,1
			c-0.1,0-5.4-0.3-6.3,3c-0.9,3.1,0.2,5.6,3.9,8.3c5-5.6,10.5-7.5,14.3-7.9c2.7,3.6,6.4,6.3,9.6,8.1c0.2,0.1,0.3,0.1,0.5,0.1
			c0.2,0,0.3,0,0.5-0.1c0,0,0.1-0.1,0.3-0.2c0.2-0.1,0.4-0.2,0.7-0.4l7.8,8.5C54.5,50.2,54,53.2,54,53.2z"/>
	</g>
	<path style="fill:#FFFFFF;" d="M39.9,21.4c-0.1,0-0.2,0-0.3,0c0.2,0,0.4,0,0.7,0C40.1,21.4,40,21.4,39.9,21.4z"/>
	<path style="fill:#FFFFFF;" d="M29.5,18.4C29.5,18.4,29.5,18.4,29.5,18.4C29.5,18.4,29.5,18.4,29.5,18.4
		C29.5,18.4,29.5,18.4,29.5,18.4z"/>
	<path style="fill:#FFFFFF;" d="M45.4,22.2c0-0.1,0.1-0.2,0.1-0.3C45.5,22,45.5,22.1,45.4,22.2C45.4,22.2,45.4,22.2,45.4,22.2
		C45.4,22.2,45.4,22.2,45.4,22.2C45.4,22.2,45.4,22.2,45.4,22.2z"/>
	<path style="fill:#FFFFFF;" d="M26.3,49.7l-2.6-2.5c-0.2,0-0.5,0-0.7,0.1c-1.3,0.2-2.3,0.5-3.2,1c-0.2,0.1-0.3,0.2-0.4,0.3
		c0,0,0.1,0.1,0.1,0.1l5.7,4.6c0.1,0.1,0.2,0.1,0.3,0.1h4c0.3,0,0.5-0.2,0.5-0.5c0-0.1,0.1-1.2-0.8-2.2C28.7,50,27.7,49.6,26.3,49.7
		z"/>
	<path style="fill:#FFFFFF;" d="M50.4,50.2l-7.8-8.5c-0.3,0.2-0.5,0.3-0.7,0.4c-0.2,0.1-0.3,0.1-0.3,0.2c-0.1,0.1-0.3,0.1-0.5,0.1
		c-0.2,0-0.3,0-0.5-0.1c-3.3-1.8-7-4.4-9.6-8.1c-3.8,0.5-9.3,2.3-14.3,7.9c-3.6-2.7-4.8-5.2-3.9-8.3c1-3.3,6.3-3,6.3-3
		c0.6,0,1.1-0.4,1.1-1c0-0.6-0.4-1.1-1-1.1c-0.3,0-7-0.4-8.5,4.5c-1.4,4.8,1.2,8,4.5,10.5c-1.9,2.5-3.8,5.6-5.3,9.5h6
		c0,0,0-0.1,0-0.4c0,0.1,0,0.2,0,0.2s0-0.1,0-0.2c0-0.7,0.2-2.2,1.2-3.6c0.4-0.5,0.8-1,1.5-1.5c0.1-0.1,0.3-0.2,0.4-0.3l0,0
		c0.8-0.5,1.9-0.9,3.2-1.2c0.2,0,0.3-0.1,0.5-0.1c0.5-0.1,1.1-0.1,1.7-0.2c0.1,0,0.1,0,0.2,0c0.2,0,0.4,0,0.6,0c0.1,0,0.1,0,0.1,0
		c0,0,0.1,0,0.1,0c0.2,0,0.5,0,0.7,0c0,0,0.1,0,0.1,0c0.3,0,0.6,0,0.9,0.1c0.1,0,0.2,0,0.3,0c0.2,0,0.5,0,0.7,0.1c0.1,0,0.2,0,0.3,0
		c0.3,0,0.6,0.1,0.9,0.1c0.1,0,0.1,0,0.2,0c0.4,0.1,0.7,0.1,1.1,0.2c0.1,0,0.2,0,0.3,0.1c0.3,0.1,0.6,0.1,0.9,0.2
		c0.1,0,0.3,0.1,0.4,0.1c0.4,0.1,0.7,0.2,1.1,0.3c0.1,0,0.1,0,0.2,0c0.4,0.1,0.9,0.2,1.3,0.3c0.1,0,0.3,0.1,0.4,0.1
		c0.3,0.1,0.7,0.2,1,0.3c0.1,0,0.3,0.1,0.4,0.1c0.4,0.1,0.9,0.3,1.3,0.4c0,0,0.1,0,0.1,0c0.5,0.2,1,0.3,1.5,0.5
		c0.2,0.1,0.3,0.1,0.5,0.2c0.4,0.1,0.8,0.3,1.2,0.4c0.2,0.1,0.3,0.1,0.5,0.2c0.5,0.2,1.1,0.4,1.6,0.6c0,0,0.1,0,0.1,0
		c0.6,0.2,1.2,0.5,1.8,0.7c0.2,0.1,0.4,0.2,0.5,0.2c0.5,0.2,0.9,0.4,1.4,0.6c0.2,0.1,0.4,0.2,0.6,0.2c0.6,0.3,1.3,0.6,2,0.9H54
		C54,53.2,54.5,50.2,50.4,50.2z"/>
	<path style="fill:#FFFFFF;" d="M29.3,29c0.6,1.7,1.4,3.4,2.8,5.1c1.9,2.5,4.8,5,9,7.3c0,0,0.3-0.1,0.8-0.4
		c2.9-1.7,12.5-8.8,9.7-22.9c0,0-1.9,0.3-3.6,1.4c-0.3,0.2-0.7,0.4-1,0.7c-0.3,0.3-0.6,0.6-0.9,0.9c-0.1,0.2-0.3,0.3-0.4,0.5
		c-0.1,0.1-0.1,0.2-0.1,0.3c0-0.1,0.1-0.2,0.1-0.3c-0.1,0.2-0.2,0.4-0.3,0.6c0,0,0,0,0,0h0l0,0c0,0,0,0,0,0c0,0,0,0,0,0
		c0,0-0.1,0-0.2,0c0,0-0.1,0-0.1,0c-0.1,0-0.2,0-0.2-0.1c-0.1,0-0.2-0.1-0.4-0.1c0,0-0.1,0-0.1,0c-0.1,0-0.3-0.1-0.5-0.1
		c0,0,0,0-0.1,0c-0.2,0-0.3-0.1-0.5-0.1c0,0-0.1,0-0.1,0c-0.2,0-0.4-0.1-0.6-0.1c0,0-0.1,0-0.1,0c-0.2,0-0.4-0.1-0.7-0.1
		c0,0,0,0,0,0c-0.2,0-0.5,0-0.7-0.1c-0.1,0-0.1,0-0.2,0c-0.2,0-0.5,0-0.7,0c0,0-0.1,0-0.1,0c-0.2,0-0.4,0-0.7,0c-0.1,0-0.1,0-0.2,0
		c-0.3,0-0.5,0-0.8,0c-0.1,0-0.1,0-0.2,0c-0.2,0-0.4,0.1-0.7,0.1c-0.1,0-0.1,0-0.2,0c-0.3,0-0.5,0.1-0.8,0.2c0,0-0.1,0-0.1,0
		c-0.2,0.1-0.5,0.1-0.7,0.2c-0.1,0-0.1,0-0.2,0.1c-0.3,0.1-0.5,0.2-0.8,0.3c0,0,0,0,0,0c0,0,0,0,0,0c0,0,0,0,0,0c0,0,0,0,0,0
		c0,0,0,0-0.1-0.1c0,0,0,0-0.1-0.1c0,0-0.1-0.1-0.1-0.1c0,0-0.1-0.1-0.1-0.2c0,0-0.1-0.1-0.1-0.1c0,0-0.1-0.1-0.1-0.1
		c0,0-0.1-0.1-0.1-0.1c0,0-0.1-0.1-0.1-0.1c0,0-0.1-0.1-0.1-0.1c0-0.1-0.1-0.1-0.2-0.2c0-0.1-0.1-0.1-0.1-0.2
		c-0.1-0.1-0.1-0.1-0.2-0.2c-0.1-0.1-0.1-0.1-0.2-0.2c-0.1-0.1-0.1-0.1-0.2-0.2c-0.1-0.1-0.1-0.1-0.2-0.2c-0.1-0.1-0.2-0.1-0.2-0.2
		c-0.1-0.1-0.1-0.1-0.2-0.2c-0.1-0.1-0.2-0.1-0.3-0.2c-0.1,0-0.1-0.1-0.2-0.1c-0.1-0.1-0.2-0.1-0.3-0.2c-0.1,0-0.1-0.1-0.2-0.1
		c-0.1-0.1-0.2-0.1-0.3-0.2c-0.1,0-0.1-0.1-0.2-0.1c-0.1-0.1-0.3-0.1-0.4-0.2c-0.1,0-0.1-0.1-0.2-0.1c-0.2-0.1-0.4-0.2-0.6-0.2
		c0,0,0,0,0,0c0,0,0,0,0,0c0,0.1-0.1,0.3-0.2,0.6c-0.1,0.4-0.3,0.9-0.4,1.7c-0.1,0.7-0.3,1.6-0.3,2.5c0,0.2,0,0.5,0,0.7
		c0,0.8,0.1,1.6,0.2,2.4C28.8,27.2,29,28.1,29.3,29z"/>
	<path style="fill:#FFFFFF;" d="M30.1,18.6c-0.2-0.1-0.4-0.2-0.6-0.2c0,0,0,0,0,0c0,0,0,0,0,0C29.7,18.5,29.9,18.6,30.1,18.6z"/>
	<path style="fill:#FFFFFF;" d="M45.7,21.6c-0.1,0.1-0.1,0.2-0.1,0.3c0,0.1-0.1,0.2-0.1,0.3C45.5,22,45.6,21.8,45.7,21.6z"/>
	<path style="fill:#FFFFFF;" d="M45.4,22.2C45.4,22.2,45.4,22.2,45.4,22.2C45.4,22.2,45.4,22.2,45.4,22.2L45.4,22.2z"/>
</g>
</svg>
