<?xml version="1.0" encoding="utf-8"?>
<!-- Generator: Adobe Illustrator 24.3.0, SVG Export Plug-In . SVG Version: 6.00 Build 0)  -->
<svg version="1.1" id="Ebene_1" xmlns="http://www.w3.org/2000/svg" xmlns:xlink="http://www.w3.org/1999/xlink" x="0px" y="0px"
	 viewBox="0 0 64 64" style="enable-background:new 0 0 64 64;" xml:space="preserve">
<g>
	<path style="fill:#006AB2;" d="M42.7,21.6c-1.5-1.6-4.1-1.7-5.7-0.1L3.3,53.1c-1.6,1.5-1.7,4.1-0.2,5.7c1.5,1.6,4.1,1.7,5.7,0.1
		l33.7-31.7C44.2,25.7,44.2,23.2,42.7,21.6z M41.2,25.8L36,30.6l-2.8-2.9l5.1-4.8c0.8-0.8,2.1-0.7,2.9,0.1C42,23.8,42,25,41.2,25.8z
		"/>
</g>
<path style="fill:#006AB2;" d="M61.9,22.5l-0.2,0.3C61.5,22.9,61.2,23,61,23l-2.9-0.4c-0.1,0-0.3,0.1-0.3,0.2l-1.2,2.7
	C56.4,25.8,56,26,55.6,26c-0.4,0-0.7-0.3-0.8-0.7l-0.7-2.9c0-0.2-0.3-0.4-0.5-0.4l-2.9-0.4c-0.3,0-0.6-0.2-0.7-0.5
	c0-0.1-0.1-0.2-0.1-0.2c-0.1-0.4,0.1-0.8,0.4-1l2.6-1.4c0.1-0.1,0.2-0.2,0.1-0.3l-0.7-3c-0.1-0.4,0.1-0.8,0.4-1
	c0.3-0.2,0.8-0.2,1.1,0.1l2.2,2.1c0.1,0.1,0.3,0.2,0.4,0.1l2.6-1.4c0.4-0.2,0.8-0.2,1.1,0.1c0.3,0.3,0.4,0.7,0.3,1.1l-1.1,2.8
	c-0.1,0.1,0,0.3,0.1,0.4l2.2,2.1C62,21.6,62.1,22.1,61.9,22.5C61.9,22.5,61.9,22.5,61.9,22.5z"/>
<path style="fill:#006AB2;" d="M51.8,37.1l-0.2,0.2c-0.1,0.1-0.3,0.2-0.5,0.1l-2.5-0.3c-0.1,0-0.2,0-0.3,0.2l-1,2.2
	c-0.1,0.3-0.4,0.5-0.8,0.5c-0.3,0-0.6-0.3-0.7-0.6l-0.6-2.4c0-0.2-0.2-0.3-0.4-0.3l-2.5-0.3c-0.3,0-0.5-0.2-0.6-0.4
	c0-0.1-0.1-0.1-0.1-0.2c-0.1-0.3,0.1-0.7,0.3-0.8l2.2-1.2c0.1-0.1,0.1-0.2,0.1-0.3l-0.6-2.5c-0.1-0.3,0.1-0.7,0.3-0.8
	c0.3-0.2,0.7-0.1,0.9,0.1l1.9,1.7c0.1,0.1,0.2,0.1,0.3,0.1l2.2-1.2c0.3-0.2,0.6-0.1,0.9,0.1c0.3,0.2,0.3,0.6,0.2,0.9l-0.9,2.3
	c0,0.1,0,0.2,0.1,0.3l1.9,1.7C51.9,36.4,52,36.7,51.8,37.1C51.8,37.1,51.8,37.1,51.8,37.1z"/>
<path style="fill:#006AB2;" d="M22,12l-0.2,0c-0.1,0-0.2,0-0.3-0.1l-1.1-1c0,0-0.1-0.1-0.2,0l-1.3,0.7c-0.2,0.1-0.4,0.1-0.5,0
	c-0.2-0.1-0.2-0.4-0.1-0.5l0.6-1.4c0-0.1,0-0.2-0.1-0.3l-1.1-1c-0.1-0.1-0.2-0.3-0.1-0.4c0,0,0-0.1,0-0.1c0.1-0.2,0.3-0.3,0.5-0.3
	L19,7.5l0.6,0.1c0.1,0,0.1,0,0.2-0.1l0.6-1.4c0.1-0.2,0.3-0.3,0.5-0.3c0.2,0,0.4,0.2,0.4,0.4l0.3,1.5c0,0.1,0.1,0.1,0.1,0.1L22.5,8
	l0.7,0.1c0.2,0,0.4,0.2,0.4,0.4c0,0.2,0,0.4-0.2,0.5l-1.3,0.8C22,9.8,22,9.9,22,9.9l0.3,1.5C22.3,11.6,22.2,11.8,22,12
	C22,12,22,12,22,12z"/>
<path style="fill:#006AB2;" d="M52.3,6.8l-0.1,0.1C52.1,7,52,7,51.9,7l-1.6-0.2c-0.1,0-0.1,0-0.2,0.1l-0.7,1.5
	c-0.1,0.2-0.3,0.3-0.5,0.3c-0.2,0-0.4-0.2-0.4-0.4l-0.3-1.6c0-0.1-0.1-0.2-0.3-0.2l-1.6-0.2c-0.2,0-0.3-0.1-0.4-0.3c0,0,0-0.1,0-0.1
	c0-0.2,0-0.4,0.2-0.5l1.4-0.7c0.1,0,0.1-0.1,0.1-0.2l-0.4-1.6c0-0.2,0-0.4,0.2-0.5C47.7,2,47.9,2,48.1,2.1l1.2,1.2
	c0.1,0.1,0.1,0.1,0.2,0l1.4-0.8c0.2-0.1,0.4-0.1,0.6,0.1c0.2,0.2,0.2,0.4,0.1,0.6L51,4.8c0,0.1,0,0.2,0,0.2l1.2,1.2
	C52.4,6.3,52.4,6.5,52.3,6.8C52.3,6.7,52.3,6.8,52.3,6.8z"/>
<path style="fill:#006AB2;" d="M35.7,18.6l-0.4-0.1c-0.2-0.1-0.4-0.4-0.5-0.6l-1-3.5c0-0.2-0.2-0.3-0.4-0.3l-3.7-0.1
	c-0.5,0-0.9-0.3-1.1-0.8c-0.1-0.5,0-1,0.5-1.3l3.1-2.2c0.2-0.1,0.3-0.5,0.3-0.7l-1-3.5c-0.1-0.4,0-0.8,0.2-1.1
	c0.1-0.1,0.2-0.2,0.3-0.2c0.4-0.3,1-0.3,1.4,0l2.9,2.3c0.1,0.1,0.3,0.1,0.5,0L40,4.3c0.4-0.3,1-0.3,1.4,0c0.4,0.3,0.6,0.8,0.4,1.3
	l-1.4,3.5c-0.1,0.2-0.1,0.4,0.1,0.5l2.9,2.3c0.4,0.4,0.6,0.8,0.4,1.3c-0.2,0.5-0.6,0.8-1.1,0.8l-3.8,0c-0.2,0-0.3,0.1-0.4,0.3
	L37,17.8c-0.2,0.5-0.6,0.8-1.2,0.8C35.8,18.6,35.8,18.6,35.7,18.6z"/>
</svg>
