<?xml version="1.0" encoding="utf-8"?><!-- Generator: Adobe Illustrator 24.3.0, SVG Export Plug-In . SVG Version: 6.00 Build 0)  -->
<svg version="1.1" id="Ebene_1" xmlns="http://www.w3.org/2000/svg" xmlns:xlink="http://www.w3.org/1999/xlink" x="0px" y="0px" viewBox="0 0 64 64" style="enable-background:new 0 0 64 64;" xml:space="preserve" class="his-icon"> <path style="fill:none;" d="M42.7,12.6c-0.2,0-0.3,0-0.5,0c0.3,0,0.6,0,0.9,0C43,12.6,42.9,12.6,42.7,12.6z" /> <path style="fill:none;" d="M29.5,8.8c-0.3-0.1-0.6-0.2-0.9-0.3c0,0,0,0,0,0.1c0,0,0-0.1,0-0.1C28.9,8.5,29.2,8.7,29.5,8.8z" /> <path style="fill:#FFFFFF;" d="M50.3,13.6c0.1-0.3,0.3-0.5,0.4-0.8C50.6,13.1,50.4,13.3,50.3,13.6C50.3,13.6,50.3,13.6,50.3,13.6
	C50.3,13.6,50.3,13.6,50.3,13.6C50.3,13.6,50.3,13.6,50.3,13.6z" /> <path style="fill:#B4783F;" d="M24.3,51.1l-3.5-3.5c-0.3,0-0.6,0-0.9,0.1c-1.7,0.2-3.2,0.7-4.4,1.3c-0.2,0.1-0.4,0.2-0.6,0.4
	c0,0.1,0.1,0.1,0.1,0.2l7.8,6.2c0.1,0.1,0.3,0.2,0.4,0.2h5.4c0.4,0,0.7-0.3,0.7-0.6c0-0.1,0.2-1.7-1-2.9
	C27.5,51.5,26.1,51.1,24.3,51.1z" /> <g> 
  <path style="fill:#B4783F;" d="M38.5,29.7c0.4-0.2,0.7-0.3,1.1-0.5c0,0,0.1,0,0.1,0c0.3-0.1,0.5-0.2,0.8-0.3
		c0.9-0.3,1.8-0.6,2.7-0.7c2.4-0.5,4.8-0.4,7.1,0c1.5,0.3,2.9,0.8,4.3,1.4c0.1,0.1,0.3,0.1,0.4,0.2c0,0,0.1,0,0.1,0.1
		c3.3-5.1,5.6-12.3,3.7-21.8c0,0-2.6,0.5-4.9,1.9c-0.5,0.3-0.9,0.6-1.4,1s-0.8,0.8-1.2,1.2c-0.2,0.2-0.3,0.5-0.5,0.7
		c-0.1,0.3-0.3,0.5-0.4,0.8c0,0,0,0,0,0c0,0,0,0-0.1,0c0,0,0,0,0,0c-0.1,0-0.1,0-0.2,0c0,0-0.1,0-0.1,0c-0.1,0-0.2,0-0.3-0.1
		c-0.2,0-0.3-0.1-0.5-0.1c0,0-0.1,0-0.1,0c-0.2,0-0.4-0.1-0.6-0.1c0,0-0.1,0-0.1,0c-0.2,0-0.4-0.1-0.7-0.1c0,0-0.1,0-0.1,0
		c-0.3,0-0.5-0.1-0.8-0.1c-0.1,0-0.1,0-0.2,0c-0.3,0-0.6-0.1-0.9-0.1c0,0,0,0,0,0c-0.3,0-0.6-0.1-1-0.1c-0.1,0-0.1,0-0.2,0
		c-0.3,0-0.7,0-1,0c-0.1,0-0.1,0-0.2,0c-0.3,0-0.6,0-0.9,0c-0.1,0-0.2,0-0.2,0c-0.4,0-0.7,0-1.1,0.1c-0.1,0-0.2,0-0.2,0
		c-0.3,0-0.6,0.1-0.9,0.1c-0.1,0-0.2,0-0.3,0c-0.4,0.1-0.7,0.1-1.1,0.2c-0.1,0-0.1,0-0.2,0c-0.3,0.1-0.7,0.2-1,0.3
		c-0.1,0-0.2,0.1-0.3,0.1c-0.4,0.1-0.7,0.3-1.1,0.4c0,0,0,0-0.1,0c0,0,0,0,0,0c0,0,0,0-0.1-0.1c0,0,0,0-0.1-0.1c0,0-0.1-0.1-0.1-0.1
		c0,0-0.1-0.1-0.1-0.1c0,0-0.1-0.1-0.1-0.1c-0.1-0.1-0.1-0.1-0.2-0.2c0-0.1-0.1-0.1-0.1-0.2c-0.1-0.1-0.1-0.1-0.2-0.2
		c-0.1-0.1-0.1-0.1-0.2-0.2c-0.1-0.1-0.1-0.1-0.2-0.2c-0.1-0.1-0.1-0.1-0.2-0.2c-0.1-0.1-0.1-0.1-0.2-0.2c-0.1-0.1-0.1-0.1-0.2-0.2
		c-0.1-0.1-0.2-0.2-0.2-0.2c-0.1-0.1-0.1-0.1-0.2-0.2c-0.1-0.1-0.2-0.2-0.3-0.2C33.1,11,33,11,32.9,10.9c-0.1-0.1-0.2-0.2-0.3-0.3
		c-0.1-0.1-0.2-0.1-0.3-0.2c-0.1-0.1-0.2-0.2-0.3-0.2c-0.1-0.1-0.2-0.1-0.3-0.2c-0.1-0.1-0.3-0.2-0.4-0.2c-0.1-0.1-0.2-0.1-0.3-0.2
		c-0.1-0.1-0.3-0.2-0.5-0.3c-0.1-0.1-0.2-0.1-0.3-0.2c-0.2-0.1-0.4-0.2-0.6-0.3c-0.1,0-0.2-0.1-0.2-0.1c-0.3-0.1-0.6-0.2-0.9-0.3
		c0,0,0,0,0,0.1c0,0.1-0.2,0.4-0.3,0.8c-0.2,0.5-0.4,1.3-0.6,2.3c-0.2,1-0.4,2.1-0.4,3.4c0,0.3,0,0.7,0,1c0,1,0.1,2.1,0.3,3.3
		c0.2,1.2,0.5,2.4,0.9,3.7c0.8,2.3,2,4.6,3.8,7c0.6,0.8,1.3,1.6,2.1,2.5c0.9-0.8,1.9-1.4,2.9-2c0,0,0.1,0,0.1,0
		C37.7,30.1,38.1,29.9,38.5,29.7z" /> 
  <path style="fill:#006AB2;" d="M61.8,38.2c-0.4-0.8-0.9-1.5-1.5-2.2c-0.1-0.1-0.1-0.1-0.1-0.2c-1.1-1.4-2.4-2.6-3.9-3.6
		c-0.8-0.5-1.5-0.9-2.1-1.3c-0.1,0-0.1-0.1-0.2-0.1c-1.3-0.6-2.6-1.1-4-1.3c-1.1-0.2-2.3-0.3-3.4-0.3c-1,0-2.1,0.1-3.2,0.3
		c-0.8,0.1-1.6,0.4-2.5,0.7c-2.1,0.7-3.9,1.8-5.6,3.2c0,0-0.1,0-0.1,0.1c-0.3,0.3-0.6,0.6-0.9,0.9c-3,3-4.9,7-5.1,11.3l0,0.2
		c0,0.3,0,0.5,0,0.8c0,0,0,0,0,0c0,1,0.1,2,0.3,3c0.4,2.4,1.3,4.6,2.7,6.6c0.3,0.4,0.5,0.7,0.8,1.1l0.1,0.2c0.1,0.1,0.1,0.2,0.2,0.2
		c1.4,1.6,3,3,4.9,4c1.6,0.9,3.4,1.5,5.2,1.9c2.3,0.4,4.4,0.4,6.6,0c1.7-0.3,3.4-1,5-1.9c2.1-1.2,3.9-2.7,5.4-4.6
		c0.3-0.4,0.6-0.9,0.9-1.3c0.2-0.3,0.4-0.6,0.5-0.9c0-0.1,0.1-0.1,0.1-0.2c1.4-2.5,2.1-5.3,2.1-8.2C64,43.7,63.2,40.8,61.8,38.2
		C61.8,38.2,61.8,38.2,61.8,38.2z M56.4,51.3c-0.7,1.4-1.6,2.7-2.8,3.7c-1.9,1.7-4.4,2.7-7.2,2.7c-5.4,0-9.9-3.9-10.8-9.1
		c-0.1-0.6-0.2-1.2-0.2-1.8h3.5c0,1,0.2,2,0.6,2.9c1.2,2.6,3.8,4.5,6.9,4.5c1.2,0,2.3-0.3,3.3-0.8c2-1,3.4-2.8,4-4.9
		c0.1-0.6,0.2-1.2,0.2-1.8c0-3.9-2.9-7.1-6.7-7.5c-0.3,0-0.5,0-0.8,0c-0.2,0-0.4,0-0.7,0l0.2,0.8l0.4,1.3l0.3,1
		c0,0.3-0.2,0.5-0.4,0.6c-0.2,0.1-0.5,0-0.7-0.1l-0.8-0.8l-3.5-3.5l-0.4-0.4c-0.2-0.2-0.2-0.8,0-1l4.7-4.7c0.1-0.1,0.3-0.2,0.4-0.2
		c0.1,0,0.2,0,0.2,0c0.2,0.1,0.4,0.3,0.4,0.6l-0.8,3c0.2,0,0.4,0,0.6,0c1.5,0,2.9,0.3,4.2,0.8c4,1.6,6.8,5.6,6.8,10.2
		C57.4,48.3,57,49.8,56.4,51.3z" /> 
  <g> 
   <path style="fill:none;" d="M61.8,38.2c-0.4-0.8-0.9-1.5-1.5-2.2c-0.1-0.1-0.1-0.1-0.1-0.2c-1.1-1.4-2.4-2.6-3.9-3.6
			c-0.8-0.5-1.5-0.9-2.1-1.3c-0.1,0-0.1-0.1-0.2-0.1c-1.3-0.6-2.6-1.1-4-1.3c-1.1-0.2-2.3-0.3-3.4-0.3c-1,0-2.1,0.1-3.2,0.3
			c-0.8,0.1-1.6,0.4-2.5,0.7c-2.1,0.7-3.9,1.8-5.6,3.2c0,0-0.1,0-0.1,0.1c-0.3,0.3-0.6,0.6-0.9,0.9c-3,3-4.9,7-5.1,11.3l0,0.2
			c0,0.3,0,0.5,0,0.8c0,0,0,0,0,0c0,1,0.1,2,0.3,3c0.4,2.4,1.3,4.6,2.7,6.6c0.3,0.4,0.5,0.7,0.8,1.1l0.1,0.2
			c0.1,0.1,0.1,0.2,0.2,0.2c1.4,1.6,3,3,4.9,4c1.6,0.9,3.4,1.5,5.2,1.9c2.3,0.4,4.4,0.4,6.6,0c1.7-0.3,3.4-1,5-1.9
			c2.1-1.2,3.9-2.7,5.4-4.6c0.3-0.4,0.6-0.9,0.9-1.3c0.2-0.3,0.4-0.6,0.5-0.9c0-0.1,0.1-0.1,0.1-0.2c1.4-2.5,2.1-5.3,2.1-8.2
			C64,43.7,63.2,40.8,61.8,38.2C61.8,38.2,61.8,38.2,61.8,38.2z" /> 
   <path style="fill:#B4783F;" d="M27.8,45.7l0-0.2c0.1-2.2,0.7-4.3,1.5-6.3c0.1-0.3,0.3-0.7,0.5-1c0.9-1.8,2.1-3.5,3.5-5
			c-1-1-1.9-2.1-2.7-3.2c-5.2,0.7-12.7,3.1-19.5,10.8c-5-3.7-6.5-7.1-5.3-11.3c1.3-4.5,8.5-4.1,8.6-4.1c0.8,0,1.5-0.5,1.5-1.3
			c0.1-0.8-0.5-1.5-1.3-1.5c-0.4,0-9.6-0.6-11.5,6.1c-1.9,6.5,1.7,10.9,6.2,14.3C6.7,46.5,4.2,50.7,2,56h8.2c0,0,0-0.2,0-0.5
			c0,0.2,0,0.3,0,0.3s0-0.1,0-0.3c0-0.9,0.2-3,1.6-4.9c0.5-0.7,1.1-1.4,2-2c0.2-0.1,0.4-0.3,0.6-0.4l0,0c1.1-0.7,2.5-1.3,4.3-1.6
			c0.2,0,0.5-0.1,0.7-0.1c0.7-0.1,1.5-0.2,2.3-0.2c0.1,0,0.2,0,0.3,0c0.3,0,0.5,0,0.8,0c0.1,0,0.1,0,0.2,0c0.1,0,0.1,0,0.2,0
			c0.3,0,0.7,0,1,0c0.1,0,0.1,0,0.2,0c0.4,0,0.8,0,1.3,0.1c0.1,0,0.2,0,0.4,0c0.3,0,0.7,0.1,1,0.1c0.1,0,0.3,0,0.4,0.1
			c0.1,0,0.3,0,0.4,0.1c0,0,0,0,0-0.1C27.8,46.2,27.8,45.9,27.8,45.7z" /> 
   <path style="fill:#FFFFFF;" d="M64,39.5c-0.3-0.7-0.6-1.3-0.9-2c-0.5-0.9-1-1.7-1.6-2.4c0,0-0.1-0.1-0.2-0.2
			c-1.2-1.5-2.6-2.8-4.2-3.9c-0.7-0.5-1.4-0.9-2-1.2c0,0-0.1,0-0.1-0.1c-0.1-0.1-0.3-0.1-0.4-0.2c-1.4-0.7-2.9-1.1-4.3-1.4
			c-2.4-0.5-4.7-0.5-7.1,0c-0.9,0.2-1.7,0.4-2.7,0.7c-0.3,0.1-0.5,0.2-0.8,0.3c0,0-0.1,0-0.1,0c-0.4,0.1-0.7,0.3-1.1,0.5
			c-0.4,0.2-0.8,0.4-1.2,0.6c0,0-0.1,0-0.1,0c-1,0.6-2,1.3-2.9,2c0,0,0,0,0,0c-0.3,0.3-0.7,0.6-1,0.9c-1.5,1.5-2.6,3.1-3.5,4.9
			c-0.2,0.3-0.3,0.7-0.5,1c-0.8,2-1.4,4.1-1.5,6.3l0,0.2c0,0.2,0,0.5,0,0.7c0,0,0,0,0,0.1c0,0,0,0.1,0,0.1c0,1.1,0.1,2.2,0.3,3.3
			c0.5,2.6,1.4,5,2.9,7.2c0.3,0.4,0.6,0.8,0.9,1.2l0.1,0.2c0.1,0.1,0.2,0.2,0.2,0.3c1.5,1.7,3.3,3.2,5.3,4.3c0.6,0.4,1.3,0.7,2,0.9
			h14.2c0.7-0.3,1.3-0.6,2-0.9c2.3-1.3,4.2-2.9,5.8-4.9c0.6-0.7,1.1-1.6,1.6-2.4c0.4-0.6,0.7-1.3,0.9-2v-2.2c0,0,0,0,0,0
			c0,0,0,0,0,0v-5c0,2.8-0.7,5.7-2.1,8.2c0,0.1-0.1,0.1-0.1,0.2c-0.2,0.3-0.4,0.6-0.5,0.9c-0.3,0.5-0.6,0.9-0.9,1.3
			c-1.4,1.9-3.3,3.4-5.4,4.6c-1.6,0.9-3.3,1.5-5,1.9c-2.2,0.4-4.3,0.4-6.6,0c-1.8-0.3-3.5-1-5.2-1.9c-1.9-1-3.5-2.4-4.9-4
			c-0.1-0.1-0.1-0.2-0.2-0.2L33,57.4c-0.3-0.4-0.6-0.7-0.8-1.1c-1.4-2-2.3-4.3-2.7-6.6c-0.2-1-0.3-2-0.3-3c0,0,0,0,0,0
			c0-0.3,0-0.5,0-0.8l0-0.2c0.3-4.3,2.1-8.3,5.1-11.3c0.3-0.3,0.6-0.6,0.9-0.9c0,0,0.1,0,0.1-0.1c1.6-1.4,3.5-2.5,5.6-3.2
			c0.9-0.3,1.7-0.5,2.5-0.7c1.1-0.2,2.2-0.3,3.2-0.3c1.1,0,2.2,0.1,3.4,0.3c1.3,0.3,2.7,0.7,4,1.3c0.1,0,0.1,0.1,0.2,0.1
			c0.7,0.3,1.4,0.7,2.1,1.3c1.5,1,2.8,2.2,3.9,3.6c0,0,0.1,0.1,0.1,0.2c0.5,0.7,1,1.4,1.5,2.2c0,0,0,0,0,0c1.4,2.6,2.2,5.5,2.2,8.4
			v-5c0,0,0,0,0,0c0,0,0,0,0,0V39.5z" /> 
  </g> 
  <path style="fill:#FFFFFF;" d="M50.6,36.4c-1.3-0.5-2.7-0.8-4.2-0.8c-0.2,0-0.4,0-0.6,0l0.8-3c0-0.3-0.2-0.5-0.4-0.6
		c-0.1,0-0.2,0-0.2,0c-0.2,0-0.3,0.1-0.4,0.2l-4.7,4.7c-0.2,0.2-0.2,0.8,0,1l0.4,0.4l3.5,3.5l0.8,0.8c0.2,0.2,0.5,0.2,0.7,0.1
		c0.2-0.1,0.4-0.3,0.4-0.6l-0.3-1L46,39.9l-0.2-0.8c0.2,0,0.4,0,0.7,0c0.3,0,0.5,0,0.8,0c3.8,0.4,6.7,3.6,6.7,7.5
		c0,0.6-0.1,1.2-0.2,1.8c-0.5,2.2-2,4-4,4.9c-1,0.5-2.1,0.8-3.3,0.8c-3.1,0-5.7-1.8-6.9-4.5c-0.4-0.9-0.6-1.9-0.6-2.9h-3.5
		c0,0.6,0.1,1.2,0.2,1.8c0.9,5.2,5.4,9.1,10.8,9.1c2.7,0,5.2-1,7.2-2.7c1.2-1,2.1-2.3,2.8-3.7c0.7-1.4,1.1-3,1.1-4.7
		C57.4,42,54.6,38,50.6,36.4z" /> 
 </g> 
</svg>