<?xml version="1.0" encoding="utf-8"?><!-- Generator: Adobe Illustrator 24.3.0, SVG Export Plug-In . SVG Version: 6.00 Build 0)  -->
<svg version="1.1" id="Ebene_1" xmlns="http://www.w3.org/2000/svg" xmlns:xlink="http://www.w3.org/1999/xlink" x="0px" y="0px" viewBox="0 0 64 64" style="enable-background:new 0 0 64 64;" xml:space="preserve" class="his-icon"> <g> 
  <path style="fill:none;" d="M42.7,12.6c-0.2,0-0.3,0-0.5,0c0.3,0,0.6,0,0.9,0C43,12.6,42.9,12.6,42.7,12.6z" /> 
  <path style="fill:none;" d="M29.5,8.8c-0.3-0.1-0.6-0.2-0.9-0.3c0,0,0,0,0,0.1c0,0,0-0.1,0-0.1C28.9,8.5,29.2,8.7,29.5,8.8z" /> 
  <path style="fill:#FFFFFF;" d="M50.3,13.6c0.1-0.3,0.3-0.5,0.4-0.8C50.6,13.1,50.4,13.3,50.3,13.6C50.3,13.6,50.3,13.6,50.3,13.6
		C50.3,13.6,50.3,13.6,50.3,13.6C50.3,13.6,50.3,13.6,50.3,13.6z" /> 
 </g> <g> 
  <path style="fill:#B4783F;" d="M24.3,51.1l-3.5-3.5c-0.3,0-0.6,0-0.9,0.1c-1.7,0.2-3.2,0.7-4.4,1.3c-0.2,0.1-0.4,0.2-0.6,0.4
		c0,0.1,0.1,0.1,0.1,0.2l7.8,6.2c0.1,0.1,0.3,0.2,0.4,0.2h5.4c0.4,0,0.7-0.3,0.7-0.6c0-0.1,0.2-1.7-1-2.9
		C27.5,51.5,26.1,51.1,24.3,51.1z" /> 
  <path style="fill:#B4783F;" d="M57.1,51.8L46.4,40.3c-0.4,0.2-0.7,0.4-1,0.6c-0.2,0.1-0.4,0.2-0.4,0.2c-0.2,0.1-0.4,0.1-0.6,0.1
		c-0.2,0-0.5-0.1-0.7-0.2c-4.4-2.4-9.5-6-13.2-11c-5.2,0.7-12.7,3.1-19.5,10.8c-5-3.7-6.5-7.1-5.3-11.3c1.3-4.5,8.5-4.1,8.6-4.1
		c0.8,0,1.5-0.5,1.5-1.3c0.1-0.8-0.5-1.5-1.3-1.5c-0.4,0-9.6-0.6-11.5,6.1c-1.9,6.5,1.7,10.9,6.2,14.3C6.7,46.5,4.2,50.7,2,56h8.2
		c0,0,0-0.2,0-0.5c0,0.2,0,0.3,0,0.3s0-0.1,0-0.3c0-0.9,0.2-3,1.6-4.9c0.5-0.7,1.1-1.4,2-2c0.2-0.1,0.4-0.3,0.6-0.4l0,0
		c1.1-0.7,2.5-1.3,4.3-1.6c0.2,0,0.5-0.1,0.7-0.1c0.7-0.1,1.5-0.2,2.3-0.2c0.1,0,0.2,0,0.3,0c0.3,0,0.5,0,0.8,0c0.1,0,0.1,0,0.2,0
		c0.1,0,0.1,0,0.2,0c0.3,0,0.7,0,1,0c0.1,0,0.1,0,0.2,0c0.4,0,0.8,0,1.3,0.1c0.1,0,0.2,0,0.4,0c0.3,0,0.7,0.1,1,0.1
		c0.1,0,0.3,0,0.4,0.1c0.4,0.1,0.8,0.1,1.3,0.2c0.1,0,0.1,0,0.2,0c0.5,0.1,1,0.2,1.5,0.3c0.1,0,0.3,0.1,0.4,0.1
		c0.4,0.1,0.8,0.2,1.2,0.2c0.2,0,0.3,0.1,0.5,0.1c0.5,0.1,1,0.2,1.5,0.4c0.1,0,0.1,0,0.2,0.1c0.6,0.1,1.2,0.3,1.8,0.5
		c0.2,0,0.4,0.1,0.5,0.2c0.5,0.1,0.9,0.3,1.4,0.4c0.2,0.1,0.4,0.1,0.6,0.2c0.6,0.2,1.2,0.4,1.8,0.6c0.1,0,0.1,0,0.2,0.1
		c0.7,0.2,1.4,0.5,2.1,0.7c0.2,0.1,0.4,0.2,0.6,0.2c0.5,0.2,1.1,0.4,1.6,0.6c0.2,0.1,0.5,0.2,0.7,0.3c0.7,0.3,1.5,0.6,2.2,0.9
		c0,0,0.1,0,0.1,0.1c0.8,0.3,1.6,0.6,2.4,1c0.2,0.1,0.5,0.2,0.7,0.3c0.6,0.3,1.3,0.5,1.9,0.8c0.3,0.1,0.5,0.2,0.8,0.3
		c0.9,0.4,1.8,0.8,2.7,1.2H62C62,56,62.6,51.8,57.1,51.8z" /> 
  <path style="fill:#B4783F;" d="M28.4,22.9c0.8,2.3,2,4.6,3.8,7c2.6,3.4,6.5,6.8,12.3,10c0,0,0.4-0.2,1.1-0.6
		c3.9-2.4,17.1-12,13.3-31.3c0,0-2.6,0.5-4.9,1.9c-0.5,0.3-0.9,0.6-1.4,1s-0.8,0.8-1.2,1.2c-0.2,0.2-0.3,0.5-0.5,0.7
		c-0.1,0.3-0.3,0.5-0.4,0.8c0,0,0,0,0,0c0,0,0,0-0.1,0c0,0,0,0,0,0c-0.1,0-0.1,0-0.2,0c0,0-0.1,0-0.1,0c-0.1,0-0.2,0-0.3-0.1
		c-0.2,0-0.3-0.1-0.5-0.1c0,0-0.1,0-0.1,0c-0.2,0-0.4-0.1-0.6-0.1c0,0-0.1,0-0.1,0c-0.2,0-0.4-0.1-0.7-0.1c0,0-0.1,0-0.1,0
		c-0.3,0-0.5-0.1-0.8-0.1c-0.1,0-0.1,0-0.2,0c-0.3,0-0.6-0.1-0.9-0.1c0,0,0,0,0,0c-0.3,0-0.6-0.1-1-0.1c-0.1,0-0.1,0-0.2,0
		c-0.3,0-0.7,0-1,0c-0.1,0-0.1,0-0.2,0c-0.3,0-0.6,0-0.9,0c-0.1,0-0.2,0-0.2,0c-0.4,0-0.7,0-1.1,0.1c-0.1,0-0.2,0-0.2,0
		c-0.3,0-0.6,0.1-0.9,0.1c-0.1,0-0.2,0-0.3,0c-0.4,0.1-0.7,0.1-1.1,0.2c-0.1,0-0.1,0-0.2,0c-0.3,0.1-0.7,0.2-1,0.3
		c-0.1,0-0.2,0.1-0.3,0.1c-0.4,0.1-0.7,0.3-1.1,0.4c0,0,0,0-0.1,0c0,0,0,0,0,0c0,0,0,0-0.1-0.1c0,0,0,0-0.1-0.1c0,0-0.1-0.1-0.1-0.1
		c0,0-0.1-0.1-0.1-0.1c0,0-0.1-0.1-0.1-0.1c-0.1-0.1-0.1-0.1-0.2-0.2c0-0.1-0.1-0.1-0.1-0.2c-0.1-0.1-0.1-0.1-0.2-0.2
		c-0.1-0.1-0.1-0.1-0.2-0.2c-0.1-0.1-0.1-0.1-0.2-0.2c-0.1-0.1-0.1-0.1-0.2-0.2c-0.1-0.1-0.1-0.1-0.2-0.2c-0.1-0.1-0.1-0.1-0.2-0.2
		c-0.1-0.1-0.2-0.2-0.2-0.2c-0.1-0.1-0.1-0.1-0.2-0.2c-0.1-0.1-0.2-0.2-0.3-0.2C33.1,11,33,11,32.9,10.9c-0.1-0.1-0.2-0.2-0.3-0.3
		c-0.1-0.1-0.2-0.1-0.3-0.2c-0.1-0.1-0.2-0.2-0.3-0.2c-0.1-0.1-0.2-0.1-0.3-0.2c-0.1-0.1-0.3-0.2-0.4-0.2c-0.1-0.1-0.2-0.1-0.3-0.2
		c-0.1-0.1-0.3-0.2-0.5-0.3c-0.1-0.1-0.2-0.1-0.3-0.2c-0.2-0.1-0.4-0.2-0.6-0.3c-0.1,0-0.2-0.1-0.2-0.1c-0.3-0.1-0.6-0.2-0.9-0.3
		c0,0,0,0,0,0.1c0,0.1-0.2,0.4-0.3,0.8c-0.2,0.5-0.4,1.3-0.6,2.3c-0.2,1-0.4,2.1-0.4,3.4c0,0.3,0,0.7,0,1c0,1,0.1,2.1,0.3,3.3
		C27.7,20.4,28,21.6,28.4,22.9z" /> 
 </g> 
</svg>