<?xml version="1.0" encoding="utf-8"?><!-- Generator: Adobe Illustrator 24.3.0, SVG Export Plug-In . SVG Version: 6.00 Build 0)  -->
<svg version="1.1" id="Ebene_1" xmlns="http://www.w3.org/2000/svg" xmlns:xlink="http://www.w3.org/1999/xlink" x="0px" y="0px" viewBox="0 0 64 64" style="enable-background:new 0 0 64 64;" xml:space="preserve" class="his-icon"> <g> 
  <path style="fill:#B4783F;" d="M24.3,51.1l-3.5-3.5c-0.3,0-0.6,0-0.9,0.1c-1.7,0.2-3.2,0.7-4.4,1.3c-0.2,0.1-0.4,0.2-0.6,0.4
		c0,0.1,0.1,0.1,0.1,0.2l7.8,6.2c0.1,0.1,0.3,0.2,0.4,0.2h5.4c0.4,0,0.7-0.3,0.7-0.6c0-0.1,0.2-1.7-1-2.9
		C27.5,51.5,26.1,51.1,24.3,51.1z" /> 
  <path style="fill:#B4783F;" d="M28,45.6c0.3-4.6,2.2-8.9,5.5-12.1c-1-1.1-2-2.2-2.9-3.4c-5.2,0.7-12.7,3.1-19.5,10.8
		c-5-3.7-6.5-7.1-5.3-11.3c1.3-4.5,8.5-4.1,8.6-4.1c0.8,0,1.5-0.5,1.5-1.3c0.1-0.8-0.5-1.5-1.3-1.5c-0.4,0-9.6-0.6-11.5,6.1
		c-1.9,6.5,1.7,10.9,6.2,14.3C6.7,46.5,4.2,50.7,2,56h8.2c0,0,0-0.2,0-0.5c0,0.2,0,0.3,0,0.3s0-0.1,0-0.3c0-0.9,0.2-3,1.6-4.9
		c0.5-0.7,1.1-1.4,2-2c0.2-0.1,0.4-0.3,0.6-0.4l0,0c1.1-0.7,2.5-1.3,4.3-1.6c0.2,0,0.5-0.1,0.7-0.1c0.7-0.1,1.5-0.2,2.3-0.2
		c0.1,0,0.2,0,0.3,0c0.3,0,0.5,0,0.8,0c0.1,0,0.1,0,0.2,0c0.1,0,0.1,0,0.2,0c0.3,0,0.7,0,1,0c0.1,0,0.1,0,0.2,0c0.4,0,0.8,0,1.3,0.1
		c0.1,0,0.2,0,0.4,0c0.3,0,0.7,0.1,1,0.1c0.1,0,0.3,0,0.4,0.1c0.2,0,0.4,0.1,0.6,0.1c0-0.2,0-0.5,0-0.7L28,45.6z" /> 
  <path style="fill:#B4783F;" d="M40.6,29.1c0.9-0.3,1.8-0.6,2.7-0.7c2.4-0.5,4.7-0.4,7.1,0c1.5,0.3,2.9,0.8,4.3,1.4
		c0.1,0.1,0.3,0.1,0.4,0.2c3.3-5.1,5.7-12.3,3.7-22c0,0-2.6,0.5-4.9,1.9c-0.5,0.3-0.9,0.6-1.4,1s-0.8,0.8-1.2,1.2
		c-0.2,0.2-0.3,0.5-0.5,0.7c-0.1,0.3-0.3,0.5-0.4,0.8c0,0,0,0,0,0c0,0,0,0-0.1,0c0,0,0,0,0,0c-0.1,0-0.1,0-0.2,0c0,0-0.1,0-0.1,0
		c-0.1,0-0.2,0-0.3-0.1c-0.2,0-0.3-0.1-0.5-0.1c0,0-0.1,0-0.1,0c-0.2,0-0.4-0.1-0.6-0.1c0,0-0.1,0-0.1,0c-0.2,0-0.4-0.1-0.7-0.1
		c0,0-0.1,0-0.1,0c-0.3,0-0.5-0.1-0.8-0.1c-0.1,0-0.1,0-0.2,0c-0.3,0-0.6-0.1-0.9-0.1c0,0,0,0,0,0c-0.3,0-0.6-0.1-1-0.1
		c-0.1,0-0.1,0-0.2,0c-0.3,0-0.7,0-1,0c-0.1,0-0.1,0-0.2,0c-0.3,0-0.6,0-0.9,0c-0.1,0-0.2,0-0.2,0c-0.4,0-0.7,0-1.1,0.1
		c-0.1,0-0.2,0-0.2,0c-0.3,0-0.6,0.1-0.9,0.1c-0.1,0-0.2,0-0.3,0c-0.4,0.1-0.7,0.1-1.1,0.2c-0.1,0-0.1,0-0.2,0
		c-0.3,0.1-0.7,0.2-1,0.3c-0.1,0-0.2,0.1-0.3,0.1c-0.4,0.1-0.7,0.3-1.1,0.4c0,0,0,0-0.1,0c0,0,0,0,0,0c0,0,0,0-0.1-0.1
		c0,0,0,0-0.1-0.1c0,0-0.1-0.1-0.1-0.1c0,0-0.1-0.1-0.1-0.1c0,0-0.1-0.1-0.1-0.1c-0.1-0.1-0.1-0.1-0.2-0.2c0-0.1-0.1-0.1-0.1-0.2
		c-0.1-0.1-0.1-0.1-0.2-0.2c-0.1-0.1-0.1-0.1-0.2-0.2c-0.1-0.1-0.1-0.1-0.2-0.2c-0.1-0.1-0.1-0.1-0.2-0.2c-0.1-0.1-0.1-0.1-0.2-0.2
		c-0.1-0.1-0.1-0.1-0.2-0.2c-0.1-0.1-0.2-0.2-0.2-0.2c-0.1-0.1-0.1-0.1-0.2-0.2c-0.1-0.1-0.2-0.2-0.3-0.2C33.1,11,33,11,32.9,10.9
		c-0.1-0.1-0.2-0.2-0.3-0.3c-0.1-0.1-0.2-0.1-0.3-0.2c-0.1-0.1-0.2-0.2-0.3-0.2c-0.1-0.1-0.2-0.1-0.3-0.2c-0.1-0.1-0.3-0.2-0.4-0.2
		c-0.1-0.1-0.2-0.1-0.3-0.2c-0.1-0.1-0.3-0.2-0.5-0.3c-0.1-0.1-0.2-0.1-0.3-0.2c-0.2-0.1-0.4-0.2-0.6-0.3c-0.1,0-0.2-0.1-0.2-0.1
		c-0.3-0.1-0.6-0.2-0.9-0.3c0,0,0,0,0,0.1c0,0.1-0.2,0.4-0.3,0.8c-0.2,0.5-0.4,1.3-0.6,2.3c-0.2,1-0.4,2.1-0.4,3.4c0,0.3,0,0.7,0,1
		c0,1,0.1,2.1,0.3,3.3c0.2,1.2,0.5,2.4,0.9,3.7c0.8,2.3,2,4.6,3.8,7c0.7,0.9,1.5,1.8,2.3,2.7c0,0,0,0,0,0
		C36.3,31,38.3,29.8,40.6,29.1z" /> 
  <polygon style="fill:none;" points="64,51.7 64,51.7 64,51.7 	" /> 
  <polygon style="fill:none;" points="64,41.8 64,41.8 64,41.8 	" /> 
  <path style="fill:#990033;" d="M61.8,38.4C61.8,38.3,61.8,38.3,61.8,38.4c-0.4-0.8-0.9-1.5-1.5-2.2C60.3,36,60.2,36,60.2,36
		c-1.1-1.4-2.4-2.6-3.9-3.6c-0.8-0.5-1.5-0.9-2.1-1.2c-0.1,0-0.1-0.1-0.2-0.1c-1.3-0.6-2.6-1-4-1.3c-1.1-0.2-2.2-0.3-3.3-0.3
		c-1,0-2.1,0.1-3.2,0.3c-0.8,0.1-1.6,0.4-2.5,0.7c-2,0.7-3.9,1.8-5.5,3.2c0,0-0.1,0-0.1,0.1c-0.3,0.3-0.6,0.6-0.9,0.8
		c-3,3-4.8,6.9-5.1,11.2l0,0.2c0,0.3,0,0.5,0,0.8c0,0,0,0,0,0c0,1,0.1,2,0.3,3c0.4,2.4,1.3,4.6,2.7,6.6c0.3,0.4,0.5,0.7,0.8,1.1
		l0.1,0.2c0.1,0.1,0.1,0.2,0.2,0.2c1.4,1.6,3,2.9,4.9,4c1.6,0.9,3.4,1.5,5.1,1.9c2.3,0.4,4.4,0.4,6.5,0c1.7-0.3,3.4-1,5-1.8
		c2.1-1.2,3.9-2.7,5.3-4.5c0.3-0.4,0.6-0.9,0.9-1.3c0.2-0.3,0.4-0.6,0.5-0.9c0-0.1,0.1-0.1,0.1-0.2c1.3-2.5,2.1-5.3,2.1-8.1
		C64,43.8,63.2,40.9,61.8,38.4z M56.9,54c0.5,0.5,0.7,1.1,0.7,1.6c0,0.1,0,0.2,0,0.4c-0.1,0.4-0.3,0.8-0.6,1.1
		c-0.4,0.4-0.9,0.5-1.4,0.5c0,0-0.1,0-0.1,0l-0.1,0c-0.6,0-1.1-0.3-1.6-0.9l-7.1-7.1l-7.1,7.1c-0.5,0.5-1,0.8-1.6,0.9l-0.1,0
		c0,0-0.1,0-0.1,0c-0.5,0-1-0.2-1.4-0.5c-0.4-0.4-0.7-0.9-0.7-1.5c0-0.6,0.3-1.1,0.7-1.6l7.3-7.3l-7.3-7.3c-0.5-0.5-0.7-1-0.7-1.6
		c0-0.6,0.2-1.1,0.7-1.5c0,0,0.1,0,0.1-0.1c0.4-0.3,0.9-0.5,1.4-0.5c0.1,0,0.1,0,0.2,0c0.5,0.1,1,0.4,1.4,0.8l7.1,7.1l7.1-7.1
		c0.5-0.5,1-0.8,1.6-0.9c0.6,0,1.1,0.1,1.5,0.5c0.4,0.4,0.7,0.9,0.7,1.5c0,0.6-0.2,1.1-0.7,1.6l-7.3,7.3L56.9,54z" /> 
  <path style="fill:#FFFFFF;" d="M49.6,46.7l7.3-7.3c0.5-0.5,0.7-1,0.7-1.6c0-0.6-0.2-1.1-0.7-1.5c-0.4-0.4-1-0.6-1.5-0.5
		c-0.6,0-1.1,0.3-1.6,0.9l-7.1,7.1l-7.1-7.1c-0.4-0.5-0.9-0.8-1.4-0.8c-0.1,0-0.1,0-0.2,0c-0.5,0-1,0.1-1.4,0.5c0,0-0.1,0-0.1,0.1
		c-0.4,0.4-0.7,0.9-0.7,1.5c0,0.6,0.2,1.1,0.7,1.6l7.3,7.3L36.5,54c-0.5,0.5-0.7,1.1-0.7,1.6c0,0.6,0.2,1.1,0.7,1.5
		c0.4,0.4,0.9,0.5,1.4,0.5c0,0,0.1,0,0.1,0l0.1,0c0.6,0,1.1-0.3,1.6-0.9l7.1-7.1l7.1,7.1c0.5,0.5,1,0.8,1.6,0.9l0.1,0
		c0,0,0.1,0,0.1,0c0.5,0,1-0.2,1.4-0.5c0.4-0.3,0.6-0.7,0.6-1.1c0-0.1,0-0.2,0-0.4c0-0.6-0.3-1.1-0.7-1.6L49.6,46.7z" /> 
  <path style="fill:#FFFFFF;" d="M64,39.6c-0.3-0.7-0.6-1.3-0.9-2c-0.5-0.9-1-1.7-1.6-2.4c0,0-0.1-0.1-0.2-0.2
		c-1.2-1.5-2.6-2.8-4.2-3.9c-0.8-0.5-1.4-0.9-2.1-1.3c-0.1-0.1-0.3-0.1-0.4-0.2c-1.4-0.7-2.8-1.1-4.3-1.4c-2.3-0.5-4.6-0.5-7.1,0
		c-0.9,0.2-1.7,0.4-2.7,0.7c-2.2,0.8-4.3,2-6.1,3.5c0,0,0,0,0,0c-0.3,0.3-0.7,0.6-1,0.9c-3.3,3.2-5.2,7.5-5.5,12.1l0,0.2
		c0,0.2,0,0.5,0,0.7c0,0.1,0,0.1,0,0.2c0,1.1,0.1,2.2,0.3,3.3c0.5,2.6,1.4,5,2.9,7.1c0.3,0.4,0.6,0.8,0.9,1.2l0.1,0.2
		c0.1,0.1,0.2,0.2,0.2,0.3c1.5,1.7,3.2,3.2,5.3,4.3c0.6,0.4,1.3,0.7,2,0.9h14.1c0.7-0.3,1.3-0.6,2-0.9c2.3-1.3,4.2-2.9,5.8-4.9
		c0.6-0.7,1.1-1.6,1.6-2.4c0.4-0.6,0.7-1.3,0.9-2v-2.1c0,0,0,0,0,0c0,0,0,0,0,0v-5c0,2.8-0.7,5.6-2.1,8.1c0,0.1-0.1,0.1-0.1,0.2
		c-0.2,0.3-0.4,0.6-0.5,0.9c-0.3,0.5-0.6,0.9-0.9,1.3c-1.4,1.9-3.2,3.4-5.3,4.5c-1.6,0.9-3.3,1.5-5,1.8c-2.2,0.4-4.3,0.4-6.5,0
		c-1.8-0.3-3.5-1-5.1-1.9c-1.9-1-3.5-2.4-4.9-4c-0.1-0.1-0.1-0.2-0.2-0.2l-0.1-0.2c-0.3-0.4-0.6-0.7-0.8-1.1c-1.4-2-2.3-4.2-2.7-6.6
		c-0.2-1-0.3-2-0.3-3c0,0,0,0,0,0c0-0.3,0-0.5,0-0.8l0-0.2c0.3-4.3,2.1-8.2,5.1-11.2c0.3-0.3,0.6-0.6,0.9-0.8c0,0,0.1,0,0.1-0.1
		c1.6-1.4,3.5-2.5,5.5-3.2c0.9-0.3,1.7-0.5,2.5-0.7c1.1-0.2,2.2-0.3,3.2-0.3c1.1,0,2.2,0.1,3.3,0.3c1.3,0.3,2.7,0.7,4,1.3
		c0.1,0,0.1,0.1,0.2,0.1c0.7,0.3,1.3,0.7,2.1,1.2c1.5,1,2.8,2.2,3.9,3.6c0,0,0.1,0.1,0.1,0.2c0.5,0.7,1,1.4,1.5,2.2c0,0,0,0,0,0
		c1.4,2.6,2.2,5.4,2.2,8.4v-5c0,0,0,0,0,0c0,0,0,0,0,0V39.6z" /> 
 </g> 
</svg>